HIERARCHY
ROOT hips
{
	OFFSET 0.000000 0.000000 0.000000
	CHANNELS 6 Xposition Yposition Zposition Zrotation Yrotation Xrotation 
	JOINT nose
	{
		OFFSET 0.000000 8.000000 0.000000
		CHANNELS 3 Zrotation Yrotation Xrotation
		JOINT left_eye
		{
			OFFSET 0.500000 0.400000 0.000000
			CHANNELS 3 Zrotation Yrotation Xrotation
		}
		JOINT right_eye
		{
			OFFSET -0.500000 0.400000 0.000000
			CHANNELS 3 Zrotation Yrotation Xrotation
		}
		JOINT left_ear
		{
			OFFSET 0.900000 0.200000 0.000000
			CHANNELS 3 Zrotation Yrotation Xrotation
		}
		JOINT right_ear
		{
			OFFSET -0.900000 0.200000 0.000000
			CHANNELS 3 Zrotation Yrotation Xrotation
		}
	}
	JOINT left_shoulder
	{
		OFFSET 1.800000 6.500000 0.000000
		CHANNELS 3 Zrotation Yrotation Xrotation
		JOINT left_elbow
		{
			OFFSET 3.200000 0.000000 0.000000
			CHANNELS 3 Zrotation Yrotation Xrotation
			JOINT left_wrist
			{
				OFFSET 3.800000 0.000000 0.000000
				CHANNELS 3 Zrotation Yrotation Xrotation
			}
			JOINT right_wrist
			{
				OFFSET -13.800000 0.000000 0.000000
				CHANNELS 3 Zrotation Yrotation Xrotation
			}
		}
	}
	JOINT right_shoulder
	{
		OFFSET -1.800000 6.500000 0.000000
		CHANNELS 3 Zrotation Yrotation Xrotation
		JOINT right_elbow
		{
			OFFSET -3.200000 0.000000 0.000000
			CHANNELS 3 Zrotation Yrotation Xrotation
		}
	}
	JOINT left_hip
	{
		OFFSET 1.000000 0.000000 0.000000
		CHANNELS 3 Zrotation Yrotation Xrotation
		JOINT left_knee
		{
			OFFSET 0.000000 -5.000000 0.000000
			CHANNELS 3 Zrotation Yrotation Xrotation
			JOINT left_ankle
			{
				OFFSET 0.000000 -4.500000 0.000000
				CHANNELS 3 Zrotation Yrotation Xrotation
			}
		}
	}
	JOINT right_hip
	{
		OFFSET -1.000000 0.000000 0.000000
		CHANNELS 3 Zrotation Yrotation Xrotation
		JOINT right_knee
		{
			OFFSET 0.000000 -5.000000 0.000000
			CHANNELS 3 Zrotation Yrotation Xrotation
			JOINT right_ankle
			{
				OFFSET 0.000000 -4.500000 0.000000
				CHANNELS 3 Zrotation Yrotation Xrotation
			}
		}
	}
}
MOTION
Frames: 10
Frame Time: 0.033333
0.460018 0.659610 0.628211 163.100980 55.894031 -57.188845 -69.378801 -27.963292 -146.756818 154.768283 -3.427644 133.068051 154.768283 -3.427644 133.068051 154.768283 -3.427644 133.068051 154.768283 -3.427644 133.068051 -121.627346 25.925323 4.104224 -52.511958 28.945514 30.147158 -23.356881 0.000000 -47.162495 -23.356881 0.000000 -47.162495 -103.352978 -10.364943 -9.557727 -132.425226 43.933058 -84.920472 142.456949 42.051917 73.402930 19.139750 -5.729330 144.216456 16.353846 -13.043177 77.009889 129.430927 30.966638 -60.871940 30.743891 -14.811723 91.177254 -15.494136 -18.379817 -99.879948
0.484362 0.573219 0.377792 25.944325 38.047078 148.076497 147.662604 -9.966272 26.202555 -106.810524 -13.980994 -135.854956 -106.810524 -13.980994 -135.854956 -106.810524 -13.980994 -135.854956 -106.810524 -13.980994 -135.854956 -68.905454 20.590812 178.993594 7.969975 39.533620 -1.131189 -120.509286 0.000000 60.865556 -120.509286 0.000000 60.865556 137.300282 10.409101 -108.058277 92.728677 57.564620 59.897533 169.661629 -46.172275 162.914372 82.444811 3.366673 7.414070 42.433322 3.132589 -8.058038 -60.229596 14.998478 134.452934 167.288035 28.442599 -23.374502 79.023078 2.777452 -3.367627
0.265001 0.488055 0.148935 -178.968813 -34.127492 48.388619 44.859860 -14.124093 65.345359 103.943502 39.380925 82.685242 103.943502 39.380925 82.685242 103.943502 39.380925 82.685242 103.943502 39.380925 82.685242 -91.425798 -48.655260 -32.755893 94.815394 63.234993 -84.486981 116.959018 0.000000 -87.219429 116.959018 0.000000 -87.219429 166.603772 20.757264 53.876760 28.840219 -34.825943 -9.221138 -152.223719 -0.978468 -91.337809 54.014476 86.477251 157.358041 36.798518 -14.063593 40.690924 153.507844 -21.040930 -54.056007 41.279416 22.237373 -160.437184 37.783331 28.497234 -73.154965
0.294801 0.378844 0.824845 -10.779775 -4.043507 -42.117329 -9.287111 73.729577 128.296889 69.460126 56.923730 -59.729300 69.460126 56.923730 -59.729300 69.460126 56.923730 -59.729300 69.460126 56.923730 -59.729300 39.291706 72.406953 62.731052 0.161913 13.246625 57.136513 89.814847 0.000000 -63.799398 89.814847 0.000000 -63.799398 154.838369 -77.896302 -94.863068 -97.341406 40.575908 -45.599426 11.883761 -37.311681 134.017846 -26.846933 -15.905484 -129.461610 -7.148240 2.807889 42.847828 24.528986 -14.460434 31.198326 -136.578309 -32.545682 -28.383350 123.476958 -39.094342 21.611562
0.493064 0.512207 0.807319 -39.263725 30.587029 -77.420765 16.951023 -43.344111 145.065319 25.336786 -8.351884 -98.616592 25.336786 -8.351884 -98.616592 25.336786 -8.351884 -98.616592 25.336786 -8.351884 -98.616592 70.767754 14.736537 40.947381 101.107686 59.417762 -114.604707 -150.312831 0.000000 -38.437172 -150.312831 0.000000 -38.437172 -171.518650 -37.260948 -147.959901 -95.065282 37.784419 -41.001546 -26.375033 7.744104 92.322134 158.063361 7.288516 11.568560 -104.575188 -3.139122 -2.427519 149.709222 -55.142860 -73.290652 -106.319189 9.431216 80.357826 23.972797 22.673825 -86.720062
0.791520 0.657234 0.679788 85.725149 31.542366 -57.375812 126.084294 52.660132 127.192784 -68.459257 -18.242365 138.499394 -68.459257 -18.242365 138.499394 -68.459257 -18.242365 138.499394 -68.459257 -18.242365 138.499394 -121.303532 -0.404566 16.802625 -124.968071 -0.050638 -70.674485 109.771418 0.000000 -36.366745 109.771418 0.000000 -36.366745 -156.134759 40.566856 -20.544008 46.172230 16.571591 7.104178 -166.942243 21.124872 -81.961571 63.910938 -16.552894 116.552473 8.877941 6.707679 -74.097912 -87.201197 58.766648 88.932886 -76.182934 -76.087242 -31.494248 89.476802 -21.279651 21.470343
0.295509 0.786153 0.590927 44.599658 19.198042 -119.171241 -89.734483 36.200887 -62.458163 70.421936 -16.777675 104.636541 70.421936 -16.777675 104.636541 70.421936 -16.777675 104.636541 70.421936 -16.777675 104.636541 -175.177237 61.261940 -56.170968 6.509373 13.090617 -34.926922 58.903109 0.000000 31.476552 58.903109 0.000000 31.476552 150.624342 -21.942709 -158.397788 141.652813 -16.344391 -44.880816 15.151277 47.763469 178.724025 100.388850 36.701793 12.470212 -95.780123 -6.883270 -6.223049 8.813281 -29.267327 52.331980 -143.192465 74.592761 25.508628 46.744943 14.361444 -32.505371
0.289299 0.308485 0.652395 156.399237 -67.033337 -137.083161 -115.375508 -29.645753 -59.647135 96.664799 41.887496 -11.600514 96.664799 41.887496 -11.600514 96.664799 41.887496 -11.600514 96.664799 41.887496 -11.600514 -143.594800 11.920647 -130.114786 -84.848916 -38.470478 47.007938 95.386171 0.000000 39.220739 95.386171 0.000000 39.220739 88.549186 -57.660336 -151.271618 -167.807933 -21.780362 121.929599 -132.505669 76.875091 -25.151527 -47.136844 35.199630 -166.797401 -53.375364 26.516915 50.228569 55.699128 3.166892 118.451252 133.220596 -23.741579 8.169913 102.850589 -17.949967 14.358928
0.196284 0.893206 0.572479 -140.396475 1.950736 -3.589798 -51.075807 5.360176 139.381717 174.166273 -10.848239 136.543449 174.166273 -10.848239 136.543449 174.166273 -10.848239 136.543449 174.166273 -10.848239 136.543449 -21.861782 64.792833 -156.146105 3.202263 15.553142 -96.743253 -129.892641 0.000000 88.730150 -129.892641 0.000000 88.730150 152.494513 -19.229654 -6.152301 -10.732715 19.252940 -1.825591 126.293053 1.444087 21.940891 161.597274 47.775351 11.766078 -128.677192 32.652416 16.021090 149.923632 -7.561580 74.635126 -9.163328 -12.807133 -98.882311 5.292661 -0.938907 20.105414
0.941577 0.552435 0.459777 -59.757768 5.506998 -170.766724 -163.181387 46.825245 149.995110 -104.114659 23.107836 -61.959017 -104.114659 23.107836 -61.959017 -104.114659 23.107836 -61.959017 -104.114659 23.107836 -61.959017 154.328693 3.608337 175.853255 142.621493 59.101746 14.033966 76.508289 0.000000 -74.888660 76.508289 0.000000 -74.888660 166.733234 -7.218358 -161.104878 -132.072786 -3.850094 8.649055 63.853321 49.313133 159.730118 -168.878465 -24.028885 -46.317987 -57.644202 12.279922 22.123486 -12.827344 -24.716257 -126.634629 49.970239 10.024154 -160.293650 12.758564 -14.234685 96.318165
